# xmcd CD database file
#
# Track frame offsets:
#	150
#	14386
#	41091
#	58341
#	73840
#	97394
#	114322
#	128912
#	146879
#	158415
#	184363
#	205265
#	216019
#	229426
#	240394
#	250315
#	265042
#	283156
#
# Disc length: 3973 seconds
#
# Revision: 1
# Processed by: cddbd v1.5.2PL0 Copyright (c) Steve Scherf et al.
# Submitted via: CDex 1.51
#
DISCID=1c0f8312
DTITLE=Various Artist - LatinAmerica - Il cuore di Cuba
DYEAR=2005
DGENRE=Salsa
TTITLE0=Tengo un son - Ecos de Siboney
TTITLE1=Chan chan - Duo Sincopa
TTITLE2=El cuarto de Tula - Eliades Ochoa y el Cuarteto Patria
TTITLE3=La bomba lacrimosa - Cuarteto Fénix
TTITLE4=Guantanamera - Compay Segundo
TTITLE5=Hasta siempre - Carlos Puebla
TTITLE6=A buena vista - Sonores de verdad
TTITLE7=La negra Tomasa - Compay Segundo
TTITLE8=Veinte anos - Pio Leiva
TTITLE9=Tres lindas cubanas - Club Musicale Oriente Cubano
TTITLE10=Yolanda - Cuarteto Fenix
TTITLE11=Ciamán no come cáiman - Cuarteto Carenas 
TTITLE12=La gloria eres tu - Trio Tesis
TTITLE13=Quizas, quizas, quizas - Omara Portuondo
TTITLE14=Flor de amor - Dúo Enigma
TTITLE15=La vida es un sueno - Mario Bauzà
TTITLE16=Son de la loma - Cuarteto Fenix
TTITLE17=El amor es una flor - Roxana Bringuez y Manuel Suarez Silva
EXTD=YEAR: 2005
EXTT0=
EXTT1=
EXTT2=
EXTT3=
EXTT4=
EXTT5=
EXTT6=
EXTT7=
EXTT8=
EXTT9=
EXTT10=
EXTT11=
EXTT12=
EXTT13=
EXTT14=
EXTT15=
EXTT16=
EXTT17=
PLAYORDER=
